<svg xmlns="http://www.w3.org/2000/svg"  viewBox="0 0 30 30" width="30px" height="30px"><path d="M 14 3.0058594 C 12.89 3.0058594 12 3.8958594 12 5.0058594 L 4 5.0058594 C 2.89 5.0058594 2 5.8958594 2 7.0058594 L 2 23.005859 C 2 24.105859 2.89 25.005859 4 25.005859 L 26 25.005859 C 27.1 25.005859 28 24.105859 28 23.005859 L 28 7.0058594 C 28 5.8958594 27.1 5.0058594 26 5.0058594 L 18 5.0058594 C 18 3.8958594 17.1 3.0058594 16 3.0058594 L 14 3.0058594 z M 15.009766 8.3359375 C 15.889766 8.3359375 16.670703 8.7164063 17.220703 9.3164062 C 17.260703 9.3664063 17.299844 9.4050781 17.339844 9.4550781 C 17.339844 9.4650781 17.349375 9.4763281 17.359375 9.4863281 C 17.539375 9.7163281 17.690781 9.9660938 17.800781 10.246094 C 17.840781 10.346094 17.870625 10.446875 17.890625 10.546875 C 17.920625 10.656875 17.950703 10.755234 17.970703 10.865234 L 17.970703 10.916016 C 17.990703 11.056016 18.009766 11.185937 18.009766 11.335938 C 18.009766 11.475938 17.990703 11.606094 17.970703 11.746094 C 17.970587 11.747356 17.970807 11.748732 17.970703 11.75 C 17.970652 11.768465 17.970196 11.787617 17.960938 11.796875 C 17.950937 11.906875 17.920391 12.015234 17.900391 12.115234 C 17.893175 12.144096 17.884169 12.16935 17.876953 12.195312 C 17.882809 12.168761 17.889878 12.140926 17.896484 12.115234 C 17.867484 12.223234 17.836875 12.332547 17.796875 12.435547 C 17.816337 12.384645 17.833358 12.331601 17.851562 12.277344 C 17.833659 12.330239 17.815894 12.382652 17.800781 12.435547 C 17.690781 12.705547 17.539375 12.945781 17.359375 13.175781 C 17.309375 13.235781 17.260938 13.305234 17.210938 13.365234 C 16.972149 13.613972 16.69103 13.822644 16.373047 13.992188 C 16.371433 13.993048 16.370756 13.995236 16.369141 13.996094 C 16.269141 14.046094 16.160781 14.096719 16.050781 14.136719 C 16.010781 14.156719 15.959922 14.175547 15.919922 14.185547 C 15.851369 14.205133 15.792765 14.224554 15.724609 14.244141 C 15.72317 14.244554 15.722151 14.24568 15.720703 14.246094 C 15.610703 14.276094 15.490859 14.296406 15.380859 14.316406 C 15.262119 14.326301 15.142101 14.335731 15.013672 14.335938 C 15.261448 14.335763 15.497722 14.303106 15.724609 14.244141 C 15.952109 14.185016 16.168547 14.098688 16.373047 13.992188 C 15.962047 14.203188 15.505719 14.333984 15.011719 14.333984 C 14.82138 14.333735 14.634994 14.314217 14.455078 14.279297 C 14.453851 14.279049 14.452397 14.279549 14.451172 14.279297 C 14.271336 14.244148 14.098313 14.193099 13.931641 14.126953 C 13.931097 14.126737 13.930231 14.127169 13.929688 14.126953 C 13.773921 14.065029 13.626329 13.986308 13.484375 13.900391 C 13.476882 13.895912 13.468418 13.890993 13.460938 13.886719 L 13.457031 13.886719 C 13.317826 13.800564 13.185965 13.702169 13.0625 13.595703 C 13.179556 13.698223 13.304002 13.793551 13.435547 13.876953 C 13.361987 13.830216 13.296319 13.783065 13.240234 13.736328 L 13.230469 13.736328 C 13.172237 13.686415 13.114975 13.643289 13.0625 13.595703 C 13.061129 13.594502 13.059963 13.593 13.058594 13.591797 C 13.04936 13.583334 13.03813 13.575239 13.029297 13.566406 C 12.959297 13.506406 12.890078 13.446719 12.830078 13.386719 C 12.700078 13.246719 12.590234 13.105312 12.490234 12.945312 C 12.390234 12.805312 12.31 12.655859 12.25 12.505859 C 12.23 12.455859 12.209453 12.405703 12.189453 12.345703 C 12.139453 12.205703 12.100312 12.066016 12.070312 11.916016 C 12.060313 11.886016 12.060781 11.856172 12.050781 11.826172 C 12.040781 11.776172 12.029297 11.735547 12.029297 11.685547 C 12.026238 11.682488 12.026864 11.677173 12.025391 11.673828 C 12.017786 11.610901 12.009766 11.54936 12.009766 11.486328 L 12.009766 11.455078 L 12.009766 11.335938 C 12.009766 10.575937 12.299766 9.8969531 12.759766 9.3769531 C 12.899766 9.2069531 13.060234 9.0557813 13.240234 8.9257812 C 13.580234 8.6757812 13.960625 8.4864844 14.390625 8.3964844 C 14.590625 8.3564844 14.799766 8.3359375 15.009766 8.3359375 z M 13.539062 13.933594 C 13.656537 14.00171 13.777495 14.063592 13.904297 14.115234 C 13.87293 14.104373 13.841914 14.091855 13.810547 14.076172 C 13.770547 14.066172 13.729453 14.045625 13.689453 14.015625 C 13.689453 14.015625 13.689688 14.025625 13.679688 14.015625 C 13.628393 13.989978 13.584771 13.962191 13.539062 13.933594 z M 13.958984 14.136719 C 14.110214 14.194771 14.265588 14.242817 14.427734 14.275391 C 14.412578 14.271915 14.395916 14.269927 14.380859 14.265625 L 14.359375 14.265625 C 14.339375 14.255625 14.309062 14.246094 14.289062 14.246094 C 14.249063 14.236094 14.219687 14.226797 14.179688 14.216797 C 14.108985 14.190283 14.031503 14.163232 13.958984 14.136719 z M 14.478516 14.283203 C 14.650403 14.314598 14.828275 14.335819 15.009766 14.335938 C 14.869766 14.335938 14.739609 14.326641 14.599609 14.306641 C 14.555275 14.301099 14.51841 14.290447 14.478516 14.283203 z M 14.009766 16.335938 L 16.009766 16.335938 C 16.139766 16.335938 16.260859 16.345234 16.380859 16.365234 C 16.500859 16.385234 16.620234 16.405547 16.740234 16.435547 L 16.740234 16.445312 C 18.040234 16.765313 19.009766 17.935937 19.009766 19.335938 L 19.009766 20.996094 L 11 20.996094 L 11 19.335938 C 11 17.925937 11.969531 16.765313 13.269531 16.445312 L 13.269531 16.435547 C 13.389531 16.405547 13.510859 16.385234 13.630859 16.365234 C 13.750859 16.345234 13.879766 16.335938 14.009766 16.335938 z"/></svg>